inDegrees=yes
name=ik_data_2024_11_07_17_14
DataType=double
version=3
OpenSimVersion=4.5.1
endheader
time	pelvis_tilt	pelvis_list	pelvis_rotation	pelvis_tx	pelvis_ty	pelvis_tz	hip_flexion_r	hip_adduction_r	hip_rotation_r	knee_angle_r	knee_angle_r_beta	ankle_angle_r	subtalar_angle_r	mtp_angle_r	hip_flexion_l	hip_adduction_l	hip_rotation_l	knee_angle_l	knee_angle_l_beta	ankle_angle_l	subtalar_angle_l	mtp_angle_l	lumbar_extension	lumbar_bending	lumbar_rotation	arm_flex_r	arm_add_r	arm_rot_r	elbow_flex_r	pro_sup_r	wrist_flex_r	wrist_dev_r	arm_flex_l	arm_add_l	arm_rot_l	elbow_flex_l	pro_sup_l	wrist_flex_l	wrist_dev_l
0	0.0012127168774695	0.03760443805905282	-95.21367714304107	0	0.9399999999999999	0	0.3121913625076613	-0.0009075560573374297	-0.08756220820883166	0.5166430761634819	0.009017122736684592	-1.139471940537456	0	0	0.3066309654456658	-0.01767651095439008	-0.06237357513244524	0.5165143226808795	0.009014875564489771	-1.139471940537456	0	0	0	0	0	0	-0.7482150800345505	0	11.00202974326005	10.96271280722618	0	0	0	-0.7482150800345505	0	11.00202974326005	10.96271280722618	0	0
1.111	0.177668006265206	0.01347719684713578	-95.22374065075313	0	0.9399999999999999	0	0.2904399828576719	-0.1876118219121463	-0.08238046958712597	0.54715636556105	0.009549680102286032	-1.145701460545254	0	0	0.2999072290103976	0.1648318506655366	-0.08065140706161997	0.5154805236720883	0.008996832367982511	-1.145701460545254	0	0	0	0	0	0	-0.7509657076247285	0	11.07926851281117	11.0347169721869	0	0	0	-0.7509657076247285	0	11.07926851281117	11.0347169721869	0	0
2.532	0.1171375360367791	-0.07399476422360513	-95.21508991157486	0	0.9399999999999999	0	0.1982503767111794	-0.234246033801683	-0.1022987632384261	0.5698497868907081	0.009945755023030876	-5.124665374149797	0	0	0.1961504992917206	0.1084018591853646	-0.07578935290871691	0.5115326692915136	0.008927929310652203	-5.124665374149797	0	0	0	0	0	0	-8.631246403312973	0	72.2974573098514	46.83746494888658	0	0	0	-8.631246403312973	0	72.2974573098514	46.83746494888658	0	0
3.863	0.08389760842249327	-0.02258009646466821	-95.21640224615425	0	0.9399999999999999	0	0.2389966921574393	-0.2087283649183747	-0.08927354904387215	0.5354266111035009	0.00934495726655132	-5.124588570512635	0	0	0.2464668486608523	0.08144986815693092	-0.07935866770989011	0.5296790190875298	0.009244642861811286	-5.124588570512635	0	0	0	0	0	0	-8.631735777237582	0	72.29785314642741	46.8367558435284	0	0	0	-8.631735777237582	0	72.29785314642741	46.8367558435284	0	0
5.039	0.06869265448722071	-0.00756518837361564	-95.21094120476413	0	0.9399999999999999	0	0.1941910917960033	-0.1679207644040777	-0.08915797228853076	0.5293687707432495	0.009239228006704734	-5.123749451358071	0	0	0.268619584782933	0.06078630077661081	-0.07231473664559492	0.5042627531340573	0.008801045337360655	-5.123749451358071	0	0	0	0	0	0	-8.636416219695953	0	72.30176813464736	46.82928071161862	0	0	0	-8.636416219695953	0	72.30176813464736	46.82928071161862	0	0
6.422	0.05715952840090232	-0.06486233316396757	-95.20866812480571	0	0.9399999999999999	0	0.0706467873608507	-0.1000218484006675	-0.08086975415538894	0.5043851291998197	0.008803181202633846	-5.123632586754954	0	0	0.2095540403728351	0.04839744430286454	-0.06403908349247751	0.5151985582298437	0.008991911142638502	-5.123632586754954	0	0	0	0	0	0	-8.637117024942349	0	72.30234338046756	46.82821981986562	0	0	0	-8.637117024942349	0	72.30234338046756	46.82821981986562	0	0
8.007	0.03214750570520714	-0.07172775998740957	-95.21346108024319	0	0.9399999999999999	0	0.1172601514298913	-0.1242551402787776	-0.09622155692834815	0.557024082153831	0.00972190424648374	-5.12359552998176	0	0	0.2052611756840189	0.02824955668445216	-0.07925554758144511	0.5444060826078099	0.00950167860939052	-5.12359552998176	0	0	0	0	0	0	-8.63734518834487	0	72.30252922609624	46.8278812348705	0	0	0	-8.63734518834487	0	72.30252922609624	46.8278812348705	0	0
8.890000000000001	0.07516478187226316	-0.09161361723708959	-95.21245356733829	0	0.9399999999999999	0	0.07601327412773794	-0.05421666648371865	-0.101240258764959	0.6141907822161421	0.01071965138507111	-5.123534484561308	0	0	0.199023020197413	0.08060224058270561	-0.0753893715104438	0.5371969943703663	0.009375856283580335	-5.123534484561308	0	0	0	0	0	0	-8.63770702476379	0	72.30282634475661	46.82733010789069	0	0	0	-8.63770702476379	0	72.30282634475661	46.82733010789069	0	0
10.276	0.1355005932114269	-0.167166805125988	-95.20718795296693	0	0.9399999999999999	0	-0.008576718381098525	-0.1023180287769962	-0.118121344277659	0.6511184210548808	0.01136416026779444	-5.123316794481853	0	0	0.1017984426839641	0.1368047335116342	-0.05657475421515485	0.5116841333453745	0.008930572857090494	-5.123316794481853	0	0	0	0	0	0	-8.638977376813095	0	72.30387552092617	46.82536971984271	0	0	0	-8.638977376813095	0	72.30387552092617	46.82536971984271	0	0
11.584	0.1355723874448737	-0.1881104831132859	-95.20262999093023	0	0.9399999999999999	0	-0.04017574105417858	-0.06527739180847543	-0.1277995060459906	0.7251996461580463	0.01265712155975575	-5.123211923515071	0	0	0.08991500715752838	0.1413124046124947	-0.0642420549126111	0.5107022232278231	0.008913435292580575	-5.123211923515071	0	0	0	0	0	0	-8.639596658698162	0	72.30438559906432	46.82442206672761	0	0	0	-8.639596658698162	0	72.30438559906432	46.82442206672761	0	0
12.897	0.1131970850361257	-0.1924797032502771	-95.20205877020217	0	0.9399999999999999	0	-0.07564084397971013	-0.07085129082160066	-0.1325591411726741	0.7365860822454232	0.01285585235954838	-5.123157646342788	0	0	0.09074721066823156	0.1247972158783851	-0.06251346242317836	0.5291906367441348	0.009236118981910438	-5.123157646342788	0	0	0	0	0	0	-8.639926589566629	0	72.30465533403581	46.82392775079775	0	0	0	-8.639926589566629	0	72.30465533403581	46.82392775079775	0	0
14.378	-0.0671796540595536	-0.1476252193007282	-95.2043655515608	0	0.9399999999999999	0	-0.1026332464088311	0.2011061236312847	-0.1299819703811367	0.7494365713603141	0.01308013570509492	-5.122908038730131	0	0	0.1051328972157621	-0.06091609341121906	-0.05761673461253183	0.5096046177952922	0.008894278463895134	-5.122908038730131	0	0	0	0	0	0	-8.641389187649006	0	72.30586257740315	46.82167620574997	0	0	0	-8.641389187649006	0	72.30586257740315	46.82167620574997	0	0
